<?xml version="1.0" standalone="no"?>
<!DOCTYPE svg PUBLIC "-//W3C//DTD SVG 20010904//EN"
 "http://www.w3.org/TR/2001/REC-SVG-20010904/DTD/svg10.dtd">
<svg version="1.0" xmlns="http://www.w3.org/2000/svg"
 width="800.000000pt" height="800.000000pt" viewBox="0 0 800.000000 800.000000"
 preserveAspectRatio="xMidYMid meet">

<g transform="translate(0.000000,800.000000) scale(0.100000,-0.100000)"
fill="#000000" stroke="none">
<path d="M1366 7599 c-65 -18 -104 -88 -130 -234 -9 -49 -23 -127 -31 -172
-23 -133 -28 -326 -16 -681 12 -330 15 -377 44 -562 9 -52 20 -132 26 -177 12
-99 97 -326 165 -444 25 -43 46 -84 46 -90 0 -7 -31 -57 -69 -113 -133 -196
-175 -312 -221 -611 -6 -38 -13 -81 -15 -95 -3 -13 -7 -81 -11 -150 -7 -151
18 -330 71 -508 28 -92 32 -117 23 -137 -14 -32 25 -161 91 -300 27 -55 59
-130 71 -168 l24 -67 35 6 c45 8 73 22 67 33 -3 5 14 7 37 5 46 -4 136 20 153
42 6 8 13 11 16 8 9 -8 97 17 109 32 13 16 33 19 24 4 -3 -6 1 -7 9 -4 19 7
21 40 4 50 -6 4 -8 3 -5 -3 8 -12 -37 -46 -47 -36 -3 4 -6 15 -6 25 0 10 -6
18 -13 18 -20 0 -127 134 -127 159 0 12 -36 42 -43 36 -4 -3 -3 0 2 6 5 7 -7
42 -34 94 -46 91 -60 136 -39 128 6 -2 15 1 20 8 5 8 3 10 -7 4 -11 -6 -12 -5
-2 5 11 12 18 9 41 -13 16 -15 29 -33 29 -40 0 -18 34 -87 44 -87 13 0 20 18
9 25 -5 3 -10 11 -10 16 0 6 6 7 13 3 6 -5 -14 21 -46 58 -31 36 -57 70 -57
77 0 6 -9 16 -20 23 -11 7 -20 19 -20 26 0 7 -7 15 -15 18 -8 4 -13 9 -11 13
2 3 -7 20 -20 36 -13 17 -24 25 -24 19 0 -6 9 -19 19 -28 11 -10 17 -24 15
-31 -3 -7 -1 -16 5 -19 11 -7 3 -37 -13 -48 -10 -7 -83 79 -79 94 2 4 -8 15
-22 24 -14 9 -22 20 -19 25 7 12 -43 99 -57 99 -6 0 -8 4 -4 10 3 5 -3 18 -14
29 -11 11 -23 32 -27 46 -3 14 -15 32 -27 40 -16 11 -21 30 -28 97 -21 219 0
369 75 554 59 146 221 453 246 469 5 3 -21 43 -57 88 -134 167 -197 368 -260
837 -15 114 -18 206 -18 580 0 303 4 465 12 508 13 70 100 256 121 258 6 1 19
2 28 3 8 0 13 5 10 10 -9 14 91 34 137 27 54 -9 136 -46 267 -120 141 -79 250
-157 405 -291 114 -97 268 -255 251 -255 -3 0 -32 24 -64 53 -272 245 -480
410 -604 477 -155 83 -338 138 -370 111 -7 -6 -26 -22 -43 -35 -54 -43 -93
-123 -100 -201 l-6 -70 21 60 c12 33 28 80 37 104 21 60 76 119 118 127 44 8
139 -18 227 -62 218 -109 560 -413 697 -619 104 -156 103 -157 -26 -30 -64 63
-121 115 -125 115 -15 0 89 -130 195 -246 56 -61 103 -107 105 -103 2 4 -4 36
-13 71 -17 69 -39 107 -124 213 -51 64 -53 68 -21 45 69 -47 216 -165 272
-217 31 -29 69 -58 85 -64 40 -17 365 -24 433 -10 380 76 667 96 1001 71 197
-16 483 -67 516 -92 7 -5 17 -7 23 -3 5 3 10 1 10 -6 0 -8 3 -9 14 0 8 7 99
16 227 22 281 15 277 13 431 185 307 343 632 603 906 726 92 40 102 43 202 45
108 3 134 -3 128 -30 -3 -13 -10 -13 -62 3 -36 12 -66 16 -79 11 -17 -7 -12
-9 26 -15 49 -8 117 -55 117 -81 0 -8 6 -20 13 -27 6 -7 13 -20 15 -29 1 -9
11 -40 21 -70 l19 -54 12 30 c15 39 23 25 44 -80 86 -417 36 -1211 -103 -1650
-28 -88 -42 -119 -114 -237 l-65 -106 55 -79 c87 -124 161 -283 198 -428 55
-213 61 -531 15 -740 -18 -84 -43 -159 -58 -177 -8 -10 -11 -22 -6 -30 6 -10
4 -10 -9 1 -14 11 -16 23 -11 65 4 28 11 56 16 63 5 7 7 17 3 23 -4 6 -2 17 5
24 14 18 25 160 11 151 -6 -3 -13 -22 -16 -43 -4 -20 -11 -48 -17 -62 -6 -14
-10 -29 -9 -34 1 -5 -1 -16 -5 -25 -4 -9 -8 -20 -9 -26 -18 -77 -59 -184 -74
-195 -4 -3 -20 -23 -36 -45 -16 -22 -35 -45 -42 -51 -17 -15 -24 -43 -29 -124
-2 -47 -1 -60 7 -48 5 10 9 24 8 30 -7 41 17 110 58 169 51 72 49 55 -8 -74
-21 -48 -39 -92 -39 -98 0 -6 -7 -23 -15 -37 -28 -52 -43 -101 -38 -123 5 -16
3 -20 -6 -14 -10 6 -11 3 -2 -13 7 -14 8 -23 1 -27 -13 -8 -13 -25 1 -25 5 0
8 4 5 8 -3 5 1 9 9 9 8 0 15 -3 15 -5 0 -10 -84 -77 -93 -74 -5 1 -6 -2 -3 -6
7 -12 -22 -38 -58 -52 -26 -9 -27 -9 -16 5 10 12 10 15 -1 15 -10 0 -10 3 -1
12 15 15 16 32 2 23 -5 -3 -10 -1 -10 5 0 6 -4 9 -9 5 -6 -3 -8 4 -6 15 5 26
1 25 -26 -2 -12 -13 -18 -16 -14 -8 8 13 6 13 -8 1 -16 -13 -17 -47 -2 -71 3
-5 -1 -10 -9 -10 -27 0 -18 -17 19 -34 50 -24 185 -60 219 -58 30 1 83 45 118
97 18 28 19 28 13 5 -4 -14 -21 -49 -37 -78 l-30 -52 36 -15 c19 -8 42 -15 50
-15 29 0 164 263 152 296 -3 8 -20 14 -38 14 -18 1 -44 8 -58 16 -14 9 -17 13
-7 10 10 -3 42 -9 71 -12 l52 -6 36 103 c49 141 55 163 67 244 53 368 45 694
-24 984 -28 117 -118 352 -172 451 -19 36 -55 89 -79 119 -24 29 -44 56 -44
60 0 7 21 40 68 105 42 58 75 147 107 284 14 59 29 123 34 142 42 153 91 729
91 1054 0 300 -57 610 -134 726 -29 43 -97 70 -179 70 -105 0 -332 -99 -529
-232 -151 -101 -286 -216 -508 -434 -118 -115 -237 -226 -265 -245 l-50 -34
-225 -5 c-226 -5 -269 -2 -435 34 -139 30 -375 49 -620 49 -257 0 -364 -9
-570 -50 -106 -21 -168 -27 -336 -30 -286 -7 -257 -22 -529 277 -95 105 -312
302 -422 383 -163 120 -412 252 -513 272 -57 11 -116 13 -149 4z m5284 -118
c7 -13 7 -22 0 -26 -5 -3 -10 3 -10 15 0 12 -4 18 -10 15 -5 -3 -10 -1 -10 4
0 18 19 12 30 -8z m13 -46 c-3 -9 -8 -14 -10 -11 -3 3 -2 9 2 15 9 16 15 13 8
-4z m27 -40 c0 -5 -5 -3 -10 5 -5 8 -10 20 -10 25 0 6 5 3 10 -5 5 -8 10 -19
10 -25z m-5370 -3413 c0 -16 5 -22 13 -19 8 3 21 -9 32 -31 24 -47 55 -83 66
-76 5 3 6 -1 3 -9 -3 -8 2 -22 12 -31 9 -9 14 -19 11 -22 -2 -3 -11 2 -20 10
-13 14 -15 13 -20 -9 -2 -14 0 -25 5 -25 5 0 6 -5 2 -11 -4 -8 -9 -7 -15 2 -4
7 -5 17 -3 21 3 4 1 8 -5 8 -10 0 -104 184 -116 228 -7 23 -6 23 14 5 12 -9
21 -28 21 -41z m120 -286 c0 -26 -6 -18 -14 19 -5 22 -4 26 4 15 5 -8 10 -24
10 -34z m5317 -8 c-3 -8 -6 -5 -6 6 -1 11 2 17 5 13 3 -3 4 -12 1 -19z m-5211
-17 c-4 -5 -2 -11 2 -13 5 -1 29 -43 55 -92 26 -49 40 -82 30 -75 -15 12 -16
12 -10 -5 7 -17 6 -17 -10 -5 -27 21 -82 79 -84 87 0 4 -5 6 -9 5 -4 -1 -6 7
-3 17 3 11 1 20 -5 20 -6 0 -9 8 -7 18 1 9 8 16 16 14 9 -2 9 1 -2 14 -9 12
-9 15 -1 10 6 -4 12 -2 12 3 0 6 5 11 11 11 5 0 8 -4 5 -9z m139 -31 c10 -11
16 -20 13 -20 -3 0 -13 9 -23 20 -10 11 -16 20 -13 20 3 0 13 -9 23 -20z
m-195 -55 c5 3 7 -3 5 -12 -1 -10 3 -36 11 -58 7 -22 11 -41 9 -44 -3 -2 -5 1
-5 8 0 7 -4 9 -10 6 -6 -4 -7 1 -3 11 4 12 3 15 -5 10 -8 -5 -10 -2 -6 8 3 9
2 16 -4 16 -11 0 -22 30 -27 75 l-3 30 14 -28 c8 -15 19 -25 24 -22z m5111 -6
c-16 -47 4 -66 50 -50 l33 11 -22 -23 c-12 -13 -22 -33 -22 -45 0 -11 -5 -24
-11 -28 -7 -4 -9 0 -5 12 4 14 -1 22 -17 30 -19 8 -27 4 -61 -31 l-38 -40 33
50 c19 28 34 55 34 60 1 20 28 95 33 91 2 -3 -1 -20 -7 -37z m-5032 -86 c20
-18 30 -32 24 -33 -7 0 -13 5 -13 12 0 6 -3 8 -6 5 -8 -8 -64 61 -64 77 0 6 6
2 12 -9 6 -11 27 -34 47 -52z m-1 -82 c27 -32 40 -55 36 -66 -5 -12 -10 -13
-20 -4 -21 17 -73 106 -67 113 9 8 6 11 51 -43z m49 24 c0 -8 -4 -15 -9 -15
-10 0 -11 14 -1 23 9 10 10 9 10 -8z m23 -46 c0 -6 -4 -7 -10 -4 -5 3 -10 11
-10 16 0 6 5 7 10 4 6 -3 10 -11 10 -16z m4850 -8 c-10 -20 -30 -37 -30 -27 0
6 33 46 38 46 1 0 -2 -9 -8 -19z m35 -61 c-3 -5 9 -14 27 -19 l33 -10 -42 2
c-32 1 -49 -5 -70 -23 -15 -14 -10 -6 12 18 38 40 53 53 40 32z"/>
<path d="M1547 3603 c4 -10 17 -29 31 -43 l25 -25 -22 43 c-21 41 -47 60 -34
25z"/>
<path d="M1595 3520 c3 -5 8 -10 11 -10 2 0 4 5 4 10 0 6 -5 10 -11 10 -5 0
-7 -4 -4 -10z"/>
<path d="M6289 7476 c-275 -114 -796 -585 -874 -791 -10 -25 -15 -48 -11 -52
3 -3 7 -4 9 -2 101 145 219 283 366 429 159 158 326 290 478 378 114 66 122
75 32 38z"/>
<path d="M6374 7360 c-199 -100 -490 -417 -841 -915 -67 -95 -90 -150 -99
-239 -7 -72 -2 -78 39 -46 46 37 59 28 55 -37 -3 -57 -2 -58 22 -55 14 2 41
14 60 27 19 13 76 43 125 66 74 34 101 42 151 42 71 1 145 -30 210 -87 33 -30
36 -35 18 -36 -12 0 -34 4 -50 9 -16 5 -47 12 -69 15 -32 4 -36 3 -21 -6 15
-8 16 -12 5 -19 -10 -6 -8 -9 8 -9 12 0 25 -4 28 -10 4 -6 -17 -10 -55 -10
-77 0 -150 -23 -184 -59 l-27 -28 78 -6 c43 -3 105 -14 138 -24 l60 -19 -69
-13 c-70 -12 -129 -32 -152 -52 -10 -8 3 -27 58 -84 73 -78 180 -142 295 -180
29 -9 55 -21 58 -26 12 -19 -17 -48 -65 -64 -27 -9 -52 -21 -55 -25 -10 -17
46 -23 102 -11 75 15 71 16 75 -26 2 -31 7 -38 23 -35 145 19 198 69 263 247
144 393 188 1097 91 1455 -25 93 -89 231 -123 265 -34 34 -78 32 -152 -5z
m226 -310 c0 -11 -7 -20 -15 -20 -8 0 -15 9 -15 20 0 11 7 20 15 20 8 0 15 -9
15 -20z m9 -59 c-1 -9 -5 -29 -9 -46 -7 -28 -8 -27 -9 13 -1 30 -5 41 -13 36
-6 -4 -8 -3 -5 3 10 16 37 11 36 -6z m-34 -41 c-1 -17 -5 -33 -10 -38 -4 -4
-4 4 0 17 6 18 4 22 -6 15 -8 -5 -18 -9 -23 -9 -5 0 -10 -12 -10 -27 -1 -14 3
-24 8 -21 5 4 6 -1 2 -12 -4 -11 -1 -22 6 -28 9 -6 7 -7 -7 -4 -15 3 -21 -1
-22 -14 -1 -14 5 -19 23 -19 19 0 24 5 24 24 0 24 1 24 27 11 25 -13 29 -13
35 3 19 50 14 -446 -6 -617 -33 -262 -117 -611 -148 -611 -5 0 -7 -4 -4 -8 4
-7 -59 -152 -67 -152 -2 0 -4 17 -4 38 -1 30 0 32 6 12 5 -19 8 -21 13 -9 3 9
2 22 -3 30 -14 22 -11 70 12 159 24 97 21 142 -4 55 -20 -68 -47 -134 -58
-141 -4 -2 15 60 43 138 28 79 57 166 66 193 8 28 18 59 23 70 5 11 11 36 14
55 3 19 12 64 20 100 19 90 28 166 19 157 -4 -4 -27 -42 -51 -85 -44 -79 -53
-80 -29 -2 34 114 40 289 21 647 -2 46 -1 85 3 87 8 5 12 -18 12 -63 0 -27 8
-25 13 5 8 37 19 56 27 43 6 -8 11 -5 19 10 15 28 18 27 16 -9z m35 -80 l-11
-25 6 25 c2 14 5 36 6 50 l2 25 4 -25 c2 -14 -1 -37 -7 -50z m-50 10 c-6 -11
-13 -20 -16 -20 -2 0 0 9 6 20 6 11 13 20 16 20 2 0 0 -9 -6 -20z m-13 -56
c-3 -3 -12 -4 -19 -1 -8 3 -5 6 6 6 11 1 17 -2 13 -5z m-667 -428 c0 -2 -7 -7
-16 -10 -8 -3 -12 -2 -9 4 6 10 25 14 25 6z m-95 -62 c-16 -13 -49 -40 -72
-59 -48 -40 -58 -44 -43 -14 10 17 125 99 140 99 3 -1 -8 -12 -25 -26z"/>
<path d="M6511 6784 c0 -11 3 -14 6 -6 3 7 2 16 -1 19 -3 4 -6 -2 -5 -13z"/>
<path d="M1451 7282 c-72 -189 -97 -364 -106 -740 -9 -366 18 -577 109 -857
28 -85 85 -196 104 -203 17 -5 15 54 -4 103 -95 252 -117 359 -136 680 -12
213 -19 650 -8 585 4 -25 5 -49 2 -55 -3 -5 2 -3 12 5 17 14 18 12 14 -37 -3
-29 -1 -50 3 -48 13 9 19 -26 19 -108 0 -184 32 -418 76 -558 27 -86 91 -229
130 -290 18 -29 23 -44 15 -52 -14 -14 -37 6 -73 62 -32 51 -36 37 -13 -49 8
-30 15 -72 15 -92 0 -20 5 -40 11 -44 6 -3 8 -17 4 -33 -4 -14 -3 -23 1 -19 4
5 14 -1 22 -13 13 -19 15 -19 38 -4 24 15 24 15 19 -8 -7 -25 21 -59 33 -41 4
5 15 14 25 19 22 12 70 125 53 125 -17 0 -102 -27 -125 -40 -39 -21 -23 14 32
67 105 103 186 117 432 78 17 -3 -4 7 -45 21 -41 14 -120 31 -174 37 l-99 12
44 36 c67 55 122 78 212 91 114 15 120 20 56 51 -78 39 -153 51 -190 32 -22
-12 -29 -13 -30 -3 -3 28 3 44 24 60 24 19 20 22 -46 33 -21 3 -35 9 -33 14
11 16 135 72 215 96 l85 25 37 -26 c38 -26 121 -110 172 -174 25 -31 27 -32
21 -10 -3 14 -13 39 -21 55 -11 24 -52 141 -53 153 0 10 33 -2 64 -23 20 -14
39 -25 42 -25 5 0 2 23 -13 90 l-6 25 23 -20 c36 -32 116 -136 140 -182 50
-97 33 -6 -21 107 -55 116 -158 292 -181 308 -18 13 -26 38 -8 27 6 -3 7 1 3
10 -4 12 -8 13 -13 5 -5 -7 -37 32 -85 102 -103 150 -283 365 -392 468 -144
137 -240 201 -350 233 l-52 16 -30 -77z"/>
<path d="M6691 7244 c0 -11 3 -14 6 -6 3 7 2 16 -1 19 -3 4 -6 -2 -5 -13z"/>
<path d="M1986 7045 c77 -77 161 -169 188 -205 57 -76 77 -97 51 -55 -52 85
-206 251 -344 370 -19 17 28 -33 105 -110z"/>
<path d="M6711 7084 c0 -11 3 -14 6 -6 3 7 2 16 -1 19 -3 4 -6 -2 -5 -13z"/>
<path d="M1421 6764 c0 -11 3 -14 6 -6 3 7 2 16 -1 19 -3 4 -6 -2 -5 -13z"/>
<path d="M1241 6694 c0 -11 3 -14 6 -6 3 7 2 16 -1 19 -3 4 -6 -2 -5 -13z"/>
<path d="M1241 6614 c0 -11 3 -14 6 -6 3 7 2 16 -1 19 -3 4 -6 -2 -5 -13z"/>
<path d="M1243 6485 c0 -38 2 -53 4 -32 2 20 2 52 0 70 -2 17 -4 1 -4 -38z"/>
<path d="M4748 6533 c7 -3 16 -2 19 1 4 3 -2 6 -13 5 -11 0 -14 -3 -6 -6z"/>
<path d="M4785 6532 c6 -5 24 -12 40 -16 34 -7 15 7 -25 19 -16 5 -22 4 -15
-3z"/>
<path d="M4648 6325 c19 -184 5 -323 -73 -706 -47 -231 -48 -237 -37 -219 26
40 142 372 162 462 19 82 8 314 -18 408 -34 121 -43 136 -34 55z"/>
<path d="M3221 6363 c-26 -51 -71 -202 -86 -291 -27 -162 -2 -296 83 -438 41
-67 41 -67 49 -38 4 16 8 106 8 199 0 141 -3 176 -17 205 l-17 35 2 -39 c2
-44 -12 -55 -38 -29 -15 15 -17 32 -12 137 3 67 14 156 25 199 19 78 20 91 3
60z"/>
<path d="M3560 6265 c0 -5 5 -17 10 -25 5 -8 10 -10 10 -5 0 6 -5 17 -10 25
-5 8 -10 11 -10 5z"/>
<path d="M3835 6230 c28 -130 35 -196 44 -399 6 -129 14 -237 17 -240 8 -8 -5
354 -17 460 -5 48 -18 113 -29 145 -11 33 -17 48 -15 34z"/>
<path d="M3590 6195 c0 -5 5 -17 10 -25 5 -8 10 -10 10 -5 0 6 -5 17 -10 25
-5 8 -10 11 -10 5z"/>
<path d="M5604 5975 c-4 -8 -11 -15 -16 -15 -35 0 -193 -140 -254 -225 -22
-31 -10 -23 51 36 44 41 112 99 151 128 40 29 74 61 77 72 6 22 -1 26 -9 4z"/>
<path d="M2630 5598 c0 -9 208 -270 238 -298 25 -23 -52 82 -116 159 -44 53
-89 107 -101 121 -11 14 -20 22 -21 18z"/>
<path d="M3902 5540 c0 -19 2 -27 5 -17 2 9 2 25 0 35 -3 9 -5 1 -5 -18z"/>
<path d="M1749 5457 c-30 -23 -139 -190 -139 -213 0 -12 6 -29 14 -36 11 -12
11 -17 -1 -34 -30 -39 -140 -298 -171 -399 -26 -88 -62 -303 -61 -364 l1 -46
13 35 c7 19 14 47 14 63 2 72 119 427 172 525 18 31 47 84 65 118 37 67 42 89
19 98 -17 6 -11 25 31 111 29 58 54 87 108 126 l39 29 -44 0 c-24 0 -51 -6
-60 -13z"/>
<path d="M6060 5443 c14 -9 54 -46 90 -83 56 -57 78 -91 161 -255 53 -105 108
-212 123 -239 14 -27 26 -57 26 -67 0 -9 3 -19 8 -21 4 -1 22 -25 40 -52 75
-116 8 67 -88 238 -11 20 -19 40 -19 44 3 19 -2 33 -10 28 -5 -3 -12 1 -15 10
-4 10 -2 13 7 9 6 -4 4 0 -5 8 -10 8 -15 17 -11 20 3 4 1 7 -5 7 -6 0 -17 19
-23 43 -7 23 -18 49 -25 57 -17 21 -85 158 -83 167 1 5 -16 18 -38 30 -54 31
-164 77 -133 56z"/>
<path d="M2760 5286 c0 -2 8 -10 18 -17 15 -13 16 -12 3 4 -13 16 -21 21 -21
13z"/>
<path d="M6007 4995 c-27 -156 -90 -286 -231 -469 -103 -133 -104 -134 -111
-199 -3 -34 -8 -80 -10 -102 -4 -38 -4 -38 5 -10 6 17 14 65 19 107 l9 78 108
113 c168 177 228 301 222 459 l-3 73 -8 -50z"/>
<path d="M5867 4983 c-4 -6 -27 -22 -51 -34 -25 -12 -47 -30 -49 -41 -3 -10
-22 -26 -44 -35 -32 -14 -80 -16 -293 -17 -295 -1 -338 -9 -485 -85 -126 -64
-241 -180 -307 -306 -60 -116 -77 -183 -85 -329 l-6 -118 -48 -55 c-47 -54
-79 -123 -79 -172 0 -14 11 -57 25 -96 13 -38 25 -87 25 -109 0 -42 -20 -119
-29 -113 -88 49 -128 60 -210 60 -54 0 -102 -6 -130 -17 -57 -21 -91 -20 -198
5 -63 15 -104 19 -146 15 -54 -5 -148 -44 -162 -66 -11 -18 -23 -11 -34 21
-22 63 -14 120 34 244 16 41 -44 -26 -70 -79 -58 -117 -11 -276 99 -333 17 -9
61 -26 100 -39 102 -35 112 -44 119 -104 8 -63 45 -130 92 -166 33 -25 35 -30
35 -83 0 -82 -15 -123 -65 -179 -48 -53 -137 -105 -245 -143 -55 -19 -86 -23
-195 -23 -148 0 -254 20 -351 65 -81 38 -101 61 -85 95 17 38 6 42 -13 5 -9
-17 -30 -38 -47 -46 -16 -9 -62 -37 -101 -62 -73 -47 -100 -62 -273 -153 -105
-55 -196 -112 -214 -134 -9 -10 -9 -21 0 -40 15 -31 25 -33 34 -6 3 11 10 20
15 20 18 0 146 -119 284 -262 107 -112 156 -172 215 -265 81 -127 126 -200
153 -246 9 -17 18 -23 20 -15 3 8 10 5 23 -10 22 -25 35 -14 35 32 0 30 0 29
28 -15 70 -109 327 -358 568 -551 98 -79 258 -203 271 -212 8 -4 28 5 50 23
21 17 110 84 198 149 303 223 461 367 522 472 34 58 31 56 45 42 9 -9 9 -12 0
-12 -7 0 -12 -9 -12 -20 0 -11 5 -20 10 -20 6 0 10 4 10 8 0 5 7 17 16 28 8
10 13 12 9 4 -15 -35 60 62 109 140 29 47 94 153 146 235 106 171 132 206 249
328 l84 87 -22 24 c-26 28 -111 90 -111 81 0 -6 -69 43 -85 61 -5 6 -37 29
-70 52 -73 48 -112 89 -50 52 118 -70 276 -176 318 -213 35 -30 52 -39 62 -32
57 40 205 158 205 164 0 3 -46 24 -102 45 -143 54 -178 70 -178 78 0 15 39 8
73 -12 19 -11 90 -43 158 -71 68 -28 130 -53 137 -56 6 -3 12 1 12 8 0 14 -27
34 -130 97 -82 50 -464 237 -546 266 -76 28 -121 35 -66 11 17 -8 32 -18 32
-23 0 -15 -82 -86 -131 -115 -207 -119 -478 -125 -709 -15 -140 67 -198 140
-216 271 -7 46 -6 47 44 94 54 50 82 102 82 152 0 43 42 87 103 107 121 39
184 88 227 173 35 70 37 138 8 202 -14 30 -38 67 -53 83 l-28 30 23 18 c12 10
40 21 61 24 22 4 42 11 46 17 4 6 -3 8 -18 4 -68 -15 -89 -18 -89 -9 0 5 26
37 57 72 95 105 214 144 363 121 194 -31 239 -34 322 -23 194 27 331 139 412
335 24 57 74 137 87 137 18 0 132 158 168 233 45 95 74 182 68 200 -2 6 -10
-6 -17 -28 -35 -106 -110 -242 -170 -308 -35 -37 -64 -66 -67 -63 -2 2 12 37
33 77 29 59 84 199 84 216 0 2 -21 4 -47 4 -28 1 -38 4 -23 6 67 13 168 128
158 180 -2 13 -6 14 -11 6z m-627 -257 c0 -15 -13 -36 -36 -55 -30 -27 -43
-32 -77 -29 -25 2 -42 8 -42 15 0 7 22 31 49 53 58 48 106 55 106 16z m-254
-87 c34 -21 35 -28 6 -61 -24 -28 -156 -21 -145 8 4 12 89 74 101 74 3 0 20
-9 38 -21z m484 -203 c28 -3 71 -24 81 -39 4 -5 -1 -33 -11 -62 -50 -146 -125
-218 -281 -271 -58 -20 -91 -24 -184 -24 -62 0 -135 4 -162 10 -26 5 -74 15
-105 21 -68 12 -69 16 -37 126 17 56 30 80 60 108 22 20 39 32 39 28 0 -4 7 0
14 10 13 16 15 14 30 -30 33 -98 127 -200 199 -218 106 -27 223 100 249 271
15 99 12 94 50 83 18 -6 44 -12 58 -13z m-1162 -981 l22 -35 -27 -11 c-185
-71 -221 -82 -288 -82 -56 -1 -82 4 -130 27 -33 15 -91 35 -130 45 -38 10 -70
22 -70 27 0 5 20 19 45 32 52 26 118 29 180 7 56 -20 113 -18 175 4 28 10 82
19 125 20 l75 1 23 -35z m-244 -955 c76 -26 257 -50 433 -57 l142 -6 -15 -23
c-27 -40 -141 -106 -227 -131 -97 -28 -265 -53 -356 -53 -79 0 -235 23 -310
45 -98 30 -270 124 -251 137 3 2 89 21 191 41 103 21 209 44 235 51 70 19 93
19 158 -4z m-1259 -88 c-3 -3 -11 0 -18 7 -9 10 -8 11 6 5 10 -3 15 -9 12 -12z
m40 -20 c-3 -3 -11 0 -18 7 -9 10 -8 11 6 5 10 -3 15 -9 12 -12z m2306 -102
c-49 -47 -70 -74 -65 -82 13 -20 13 -39 1 -31 -6 4 -8 0 -4 -10 7 -19 -1 -49
-12 -43 -4 3 -7 -4 -8 -14 -1 -11 2 -22 8 -25 5 -4 9 3 9 14 0 14 6 21 20 21
26 0 25 -12 -5 -65 -13 -25 -43 -88 -66 -141 -22 -54 -44 -104 -49 -113 -4 -9
-13 -29 -20 -46 -21 -50 -26 -59 -39 -63 -9 -3 -11 2 -6 17 3 11 2 21 -3 21
-5 0 -9 7 -9 15 0 8 4 12 8 9 14 -8 39 41 45 92 4 27 13 54 21 60 12 10 11 12
-2 17 -8 4 -14 1 -12 -6 1 -7 -4 -11 -11 -9 -6 1 -11 -1 -10 -5 1 -5 -6 -23
-15 -41 -10 -18 -16 -36 -13 -40 2 -4 -11 -7 -29 -6 -25 1 -32 -2 -30 -15 1
-9 0 -20 -4 -26 -3 -5 -6 -16 -6 -22 0 -7 -4 -13 -10 -14 -20 -1 -44 -31 -38
-47 4 -10 2 -13 -5 -8 -18 11 -14 -5 3 -18 13 -9 14 -17 4 -43 -9 -28 -14 -31
-30 -22 -11 6 -17 15 -12 22 4 8 1 7 -10 -1 -9 -8 -22 -10 -29 -6 -10 6 -9 3
1 -9 12 -15 9 -21 -11 -18 -5 0 -8 -4 -8 -10 0 -8 -4 -8 -14 0 -10 9 -16 9
-21 1 -4 -6 -14 -10 -23 -8 -10 2 -23 -3 -30 -12 -8 -8 -11 -9 -7 -3 4 9 1 11
-9 7 -9 -3 -13 -11 -9 -18 4 -7 2 -7 -7 1 -10 9 -19 9 -41 -3 -16 -8 -29 -17
-29 -20 0 -3 5 -2 12 2 7 4 8 3 4 -5 -6 -9 -11 -9 -22 0 -11 9 -15 8 -20 -6
-4 -9 -2 -20 3 -24 15 -9 33 -47 33 -69 0 -66 -143 -275 -277 -404 -62 -60
-203 -160 -217 -155 -6 3 -68 52 -137 109 -117 96 -225 209 -212 221 2 3 -6
11 -19 18 -20 11 -22 11 -10 -3 7 -9 9 -19 4 -22 -15 -9 -191 160 -181 175 4
7 5 17 2 23 -3 5 -1 6 5 2 7 -4 12 -3 12 3 0 5 -3 12 -8 15 -10 6 -43 -19 -35
-27 3 -4 1 -7 -5 -7 -7 0 -12 7 -12 15 0 8 -7 15 -15 15 -19 0 -19 15 1 46 15
23 15 24 -1 18 -14 -6 -16 -3 -10 16 5 16 4 20 -5 15 -7 -4 -10 -19 -6 -36 3
-16 1 -29 -4 -29 -14 0 -82 77 -99 111 -7 16 -17 29 -22 29 -11 0 -44 74 -54
117 -6 31 -25 56 -25 34 0 -6 -7 -8 -15 -5 -8 4 -15 18 -15 33 0 15 -7 36 -15
47 -14 18 -14 17 -16 -16 -2 -19 -3 -43 -4 -52 -1 -20 -12 -34 -12 -16 0 7 -3
29 -7 48 -5 26 -4 31 3 20 9 -12 11 -10 11 12 0 15 -4 29 -9 32 -5 3 -12 23
-16 43 -3 21 -15 45 -26 53 -12 10 -21 30 -22 50 -1 19 -9 41 -17 48 -11 10
-12 15 -3 18 21 9 -12 35 -33 27 -14 -5 -16 -3 -11 11 4 9 3 15 -1 12 -8 -5
-36 54 -66 142 -13 37 -7 59 9 32 3 -5 12 -7 20 -4 14 6 43 -10 115 -64 51
-38 78 -50 200 -92 140 -47 152 -55 229 -140 114 -126 238 -207 412 -268 114
-40 161 -46 255 -32 148 22 329 129 610 362 89 73 187 149 219 168 32 19 96
67 144 107 47 40 87 70 90 67 2 -2 -28 -35 -68 -74z m-2386 -10 c3 -5 2 -15
-1 -24 -5 -13 -9 -14 -21 -5 -8 7 -18 20 -23 29 -8 14 -5 16 16 12 13 -2 26
-8 29 -12z m2112 -485 c0 -8 -4 -12 -9 -9 -5 3 -6 10 -3 15 9 13 12 11 12 -6z
m10 -40 c4 -4 2 -5 -4 -1 -9 5 -13 -1 -14 -18 -2 -40 -3 -44 -14 -53 -6 -4 -7
-4 -3 1 4 5 2 16 -5 24 -10 13 -9 14 2 7 11 -6 13 -1 9 22 -4 30 10 39 29 18z
m23 -103 c-2 -17 -49 -96 -51 -82 -3 31 -4 36 -17 57 -11 19 -10 22 3 17 8 -4
15 -2 15 3 0 5 11 10 25 11 14 1 25 -2 25 -6z"/>
<path d="M5016 2058 c12 -12 21 -15 29 -8 6 5 16 6 21 2 4 -4 2 1 -5 11 -14
18 -23 22 -18 10 1 -5 -2 -9 -8 -9 -5 -1 -9 1 -8 5 1 4 -5 8 -13 8 -11 0 -11
-4 2 -19z"/>
<path d="M4986 1988 c3 -4 11 -5 19 -1 21 7 19 12 -4 10 -11 0 -18 -5 -15 -9z"/>
<path d="M4944 1966 c1 -8 5 -18 8 -22 4 -3 5 1 4 10 -1 8 -5 18 -8 22 -4 3
-5 -1 -4 -10z"/>
<path d="M4981 1944 c0 -11 3 -14 6 -6 3 7 2 16 -1 19 -3 4 -6 -2 -5 -13z"/>
<path d="M4902 1919 c2 -7 10 -15 17 -17 8 -3 12 1 9 9 -2 7 -10 15 -17 17 -8
3 -12 -1 -9 -9z"/>
<path d="M3307 1585 c-4 -8 -3 -16 1 -19 4 -3 9 4 9 15 2 23 -3 25 -10 4z"/>
<path d="M3326 1553 c-6 -14 -5 -15 5 -6 7 7 10 15 7 18 -3 3 -9 -2 -12 -12z"/>
<path d="M3354 1562 c3 -6 2 -13 -4 -17 -18 -11 -11 -25 13 -25 18 0 19 -2 7
-10 -13 -8 -12 -10 3 -10 9 0 17 7 17 15 0 9 -9 15 -21 15 -17 0 -19 3 -10 14
9 11 9 16 0 22 -7 4 -9 3 -5 -4z"/>
<path d="M3766 1483 c-4 -10 -4 -14 0 -10 4 3 15 -3 25 -15 11 -11 19 -17 19
-11 0 5 -8 20 -19 32 -17 20 -19 20 -25 4z"/>
<path d="M4351 1483 c-14 -9 -21 -11 -17 -5 4 7 3 12 -3 12 -5 0 -13 -5 -16
-10 -4 -6 -11 -8 -16 -5 -5 4 -9 1 -9 -4 0 -6 -9 -11 -20 -11 -11 0 -28 -12
-38 -27 -17 -28 -58 -43 -48 -18 3 8 -2 12 -12 11 -9 -2 -18 -9 -20 -17 -3
-11 -2 -12 6 -1 7 11 10 10 16 -3 3 -9 6 -18 6 -19 0 -1 -13 -1 -30 2 -21 3
-30 0 -30 -9 0 -11 -2 -11 -10 1 -9 13 -10 13 -10 0 0 -13 -1 -13 -10 0 -9 13
-10 13 -10 0 0 -13 -1 -13 -10 0 -7 11 -10 12 -10 2 0 -11 -3 -11 -14 1 -10
10 -30 12 -66 9 -42 -3 -51 -2 -45 9 6 11 5 12 -6 2 -13 -13 -38 -19 -26 -6 4
3 -3 11 -16 18 -39 20 -57 25 -57 14 0 -14 142 -80 158 -74 7 3 10 0 6 -6 -11
-19 204 -8 248 13 20 10 42 18 47 18 6 0 15 8 20 18 6 9 11 13 11 9 0 -5 12 0
28 11 15 11 29 19 32 19 9 -3 45 28 48 41 3 19 -26 26 -45 11 -12 -10 -15 -10
-9 -1 10 16 5 15 -23 -5z m-142 -96 c8 -10 7 -14 -4 -14 -8 0 -15 6 -15 14 0
7 2 13 4 13 2 0 9 -6 15 -13z"/>
<path d="M3550 1474 c0 -6 7 -19 16 -30 14 -18 14 -18 3 6 -14 31 -19 36 -19
24z"/>
<path d="M3424 1438 c-4 -6 -2 -14 4 -16 7 -2 10 -8 6 -13 -8 -14 12 -11 25 4
13 17 4 28 -17 20 -10 -4 -13 -2 -8 5 4 7 5 12 2 12 -3 0 -8 -5 -12 -12z"/>
<path d="M3578 1365 c2 -14 9 -25 15 -25 7 0 7 -4 -1 -12 -10 -10 -15 -10 -22
2 -5 8 -7 17 -4 21 2 4 -6 5 -18 1 -16 -4 -19 -2 -14 9 4 8 1 6 -8 -4 -8 -11
-12 -25 -9 -33 5 -13 9 -12 25 3 17 16 18 16 12 0 -6 -16 -2 -19 29 -21 6 -1
22 -12 35 -25 12 -13 22 -20 22 -14 0 5 -4 13 -9 19 -5 5 -14 26 -20 46 -15
45 -41 71 -33 33z"/>
<path d="M2112 4937 c6 -32 -3 -34 -51 -6 l-36 21 43 -39 c39 -35 42 -42 42
-87 0 -147 83 -301 201 -369 37 -22 48 -35 58 -70 39 -131 135 -249 250 -306
132 -67 177 -71 606 -60 l161 4 67 -34 c40 -20 87 -55 118 -88 34 -36 48 -46
43 -31 -14 46 -74 128 -112 153 l-39 26 -6 92 c-31 485 -396 771 -916 716
-118 -12 -181 -7 -181 16 0 8 -17 16 -42 20 -40 7 -147 40 -192 60 -16 7 -18
5 -14 -18z m63 -88 c11 -10 40 -29 65 -44 l45 -26 -44 6 c-39 6 -42 5 -38 -11
3 -11 11 -44 17 -74 15 -65 41 -121 82 -172 41 -52 17 -47 -42 8 -59 55 -95
123 -115 219 -26 123 -21 139 30 94z m715 -84 c17 -20 4 -35 -31 -35 -22 0
-29 5 -29 19 0 30 39 41 60 16z m-55 -93 c-8 -9 -35 20 -28 31 4 6 11 3 19 -8
8 -10 12 -21 9 -23z m-101 -194 c3 -13 10 -47 15 -76 20 -100 87 -203 155
-239 57 -30 154 12 201 87 14 22 35 70 47 107 26 84 31 90 56 65 13 -13 22
-40 27 -79 8 -72 -4 -105 -64 -180 -45 -57 -44 -58 29 -54 19 1 39 6 45 11 7
5 27 4 50 -5 24 -8 34 -15 25 -18 -15 -5 -155 -22 -300 -37 -179 -19 -376 36
-472 132 -44 44 -92 139 -103 206 -9 57 0 53 21 -10 34 -104 86 -180 158 -230
21 -15 14 -3 -25 38 -58 62 -106 147 -115 205 l-6 34 89 23 c48 12 102 27 118
31 44 13 44 13 49 -11z"/>
<path d="M5715 4910 c-3 -6 1 -7 9 -4 18 7 21 14 7 14 -6 0 -13 -4 -16 -10z"/>
<path d="M6471 4744 c0 -11 3 -14 6 -6 3 7 2 16 -1 19 -3 4 -6 -2 -5 -13z"/>
<path d="M5928 4403 c16 -29 50 -56 64 -51 7 3 31 -1 52 -9 62 -21 55 -6 -9
23 -32 14 -72 32 -87 40 -28 14 -29 14 -20 -3z"/>
<path d="M1801 3654 c0 -11 3 -14 6 -6 3 7 2 16 -1 19 -3 4 -6 -2 -5 -13z"/>
<path d="M1832 3594 c10 -10 20 -16 22 -13 3 3 -5 11 -17 18 -21 13 -21 12 -5
-5z"/>
<path d="M1737 3566 c-29 -27 -27 -61 4 -71 10 -4 19 -10 19 -14 0 -4 11 -13
25 -19 29 -14 30 -2 1 62 -9 22 -14 46 -12 53 8 20 -9 15 -37 -11z"/>
<path d="M6405 3549 c-11 -4 -17 -8 -14 -8 7 -1 -3 -52 -17 -86 -7 -17 -6 -18
8 -7 14 11 52 102 45 107 -1 2 -11 -1 -22 -6z"/>
<path d="M2390 3520 c8 -5 20 -10 25 -10 6 0 3 5 -5 10 -8 5 -19 10 -25 10 -5
0 -3 -5 5 -10z"/>
<path d="M4845 3521 c-3 -6 24 -24 59 -41 115 -54 207 -155 237 -258 10 -36
10 -45 -1 -52 -11 -7 -10 -21 7 -84 17 -66 18 -76 4 -76 -12 0 -12 -3 -3 -12
7 -7 12 -24 12 -39 0 -33 14 -39 91 -39 64 0 153 -31 163 -56 3 -8 12 -14 21
-14 8 0 48 -12 88 -26 106 -38 426 -134 469 -141 34 -5 42 -1 80 33 34 31 175
147 304 250 8 6 14 13 14 16 0 10 -153 50 -175 45 -14 -2 -23 -1 -21 2 3 3
-45 7 -106 8 -135 3 -191 -11 -306 -74 -48 -26 -108 -57 -134 -70 l-46 -22
-209 69 c-194 65 -205 70 -158 71 30 1 39 4 23 6 -24 4 -28 9 -28 38 0 23 -7
39 -21 49 -22 15 -22 15 6 22 15 4 136 2 268 -5 132 -6 242 -9 244 -7 8 7
-262 39 -382 45 l-130 6 -5 35 c-20 121 -126 246 -253 299 -79 33 -102 37
-112 22z"/>
<path d="M6309 3468 l-54 -63 58 49 c31 27 57 55 57 62 0 8 -2 14 -4 14 -1 0
-27 -28 -57 -62z"/>
<path d="M3048 3496 c-31 -13 -80 -44 -110 -70 -29 -25 -59 -46 -66 -46 -7 0
-10 -4 -7 -10 3 -5 -3 -27 -15 -49 -12 -24 -20 -60 -20 -88 0 -45 2 -48 25
-48 23 0 28 7 45 66 33 108 106 188 212 230 22 8 39 19 39 25 -1 18 -47 14
-103 -10z"/>
<path d="M2465 3490 c22 -11 47 -19 55 -19 17 1 -32 23 -70 33 -14 3 -7 -3 15
-14z"/>
<path d="M1883 3483 c3 -10 13 -52 22 -93 9 -41 23 -89 31 -107 8 -17 14 -39
14 -50 0 -16 43 -73 55 -73 5 0 -5 31 -15 45 -12 17 -41 98 -46 125 -2 14 -13
50 -23 80 -11 30 -20 63 -21 73 0 9 -5 17 -11 17 -6 0 -8 -8 -6 -17z"/>
<path d="M2555 3460 c11 -5 27 -9 35 -9 9 0 8 4 -5 9 -11 5 -27 9 -35 9 -9 0
-8 -4 5 -9z"/>
<path d="M6340 3460 c0 -5 5 -10 11 -10 5 0 7 5 4 10 -3 6 -8 10 -11 10 -2 0
-4 -4 -4 -10z"/>
<path d="M6410 3449 c0 -5 5 -7 10 -4 6 3 10 8 10 11 0 2 -4 4 -10 4 -5 0 -10
-5 -10 -11z"/>
<path d="M1726 3431 c-4 -6 50 -101 58 -101 1 0 2 9 2 19 0 11 -4 17 -9 14 -5
-3 -7 0 -5 8 3 8 12 13 21 11 10 -2 15 4 14 17 -1 20 -1 20 -22 1 -28 -27 -38
-25 -33 4 4 18 1 23 -10 18 -10 -3 -13 -1 -8 6 4 7 5 12 2 12 -3 0 -7 -4 -10
-9z"/>
<path d="M2655 3430 c11 -5 27 -9 35 -9 9 0 8 4 -5 9 -11 5 -27 9 -35 9 -9 0
-8 -4 5 -9z"/>
<path d="M6325 3420 c-10 -11 -13 -20 -7 -20 6 0 16 9 22 20 6 11 9 20 7 20
-2 0 -12 -9 -22 -20z"/>
<path d="M6346 3390 c-20 -22 -36 -43 -36 -48 1 -4 12 7 25 23 13 17 34 38 46
48 12 9 17 17 11 17 -5 0 -26 -18 -46 -40z"/>
<path d="M2750 3404 c25 -7 50 -13 55 -13 18 1 -59 27 -80 28 -11 0 0 -7 25
-15z"/>
<path d="M6335 3340 c-16 -17 -16 -20 -3 -15 9 4 19 13 22 21 7 19 2 18 -19
-6z"/>
<path d="M6296 3322 c-2 -4 -1 -14 4 -22 7 -11 9 -9 7 8 -1 24 -3 26 -11 14z"/>
<path d="M1886 3293 c-6 -14 -5 -15 5 -6 7 7 10 15 7 18 -3 3 -9 -2 -12 -12z"/>
<path d="M6345 3251 c1 -9 -1 -21 -6 -27 -5 -7 -3 -11 5 -11 8 0 13 7 11 16
-1 9 1 21 6 27 5 7 3 11 -5 11 -8 0 -13 -7 -11 -16z"/>
<path d="M6373 3235 c0 -8 4 -12 9 -9 5 3 6 10 3 15 -9 13 -12 11 -12 -6z"/>
<path d="M3016 3232 c-22 -35 44 -82 69 -49 9 13 14 14 24 4 10 -9 12 -6 9 18
-3 28 -6 30 -50 33 -25 2 -49 -1 -52 -6z"/>
<path d="M4874 3215 c-9 -22 14 -45 46 -45 32 0 55 23 46 45 -3 10 -19 15 -46
15 -27 0 -43 -5 -46 -15z"/>
<path d="M3187 3213 c-10 -10 -8 -51 3 -58 9 -5 70 20 70 30 0 2 -7 11 -16 19
-16 16 -46 21 -57 9z"/>
<path d="M4773 3210 c-23 -10 -46 -43 -36 -54 11 -11 58 -6 77 7 21 15 18 51
-4 54 -8 1 -25 -2 -37 -7z"/>
<path d="M1880 3184 c0 -8 -4 -13 -9 -10 -4 3 -34 -1 -65 -9 -31 -8 -65 -15
-74 -15 -17 0 -272 -77 -280 -84 -8 -9 169 -234 231 -295 l66 -64 45 13 c55
15 73 32 51 50 -8 7 -12 16 -9 21 3 5 -3 9 -12 9 -10 0 -29 10 -43 23 -14 12
-19 14 -12 5 7 -10 10 -18 6 -18 -4 0 -1 -8 6 -17 13 -16 12 -17 -3 -4 -10 7
-15 17 -12 22 3 5 -8 17 -25 27 -17 9 -29 21 -28 27 2 5 -8 19 -22 32 -17 15
-20 21 -8 17 16 -6 22 5 18 29 -1 5 3 5 9 2 6 -4 9 -9 6 -12 -2 -3 11 -18 30
-35 19 -16 31 -35 27 -41 -3 -5 -1 -7 4 -4 13 8 36 -17 25 -28 -4 -5 -1 -5 6
-1 9 5 24 -1 40 -16 59 -53 50 -53 189 -9 70 22 147 45 171 51 23 6 42 12 42
14 0 9 -108 112 -167 159 -37 29 -94 82 -125 115 -58 63 -78 75 -78 46z m21
-171 c13 -16 12 -17 -3 -4 -10 7 -18 15 -18 17 0 8 8 3 21 -13z"/>
<path d="M2800 3164 c-148 -14 -342 -53 -416 -84 -49 -21 -55 -41 -7 -22 46
19 227 52 310 57 43 3 100 8 127 10 75 7 43 -10 -64 -34 -217 -49 -486 -184
-395 -199 14 -2 16 0 7 6 -12 8 -9 11 142 76 51 23 72 26 171 26 61 0 125 4
141 9 16 5 42 12 57 16 27 5 28 8 22 44 -4 24 -2 42 4 46 19 11 12 30 -16 43
-15 6 -32 11 -37 10 -6 0 -27 -3 -46 -4z"/>
<path d="M2868 2982 c-9 -13 -18 -18 -20 -12 -3 9 -15 8 -50 0 -35 -9 -55 -22
-74 -48 -27 -35 -59 -110 -50 -119 2 -2 43 14 91 36 48 23 91 41 97 41 5 0 16
7 24 15 9 8 30 15 47 16 31 0 32 0 7 10 -26 11 -41 30 -50 64 -6 19 -6 19 -22
-3z"/>
<path d="M3046 2975 c28 -13 54 -31 57 -39 8 -20 46 -21 53 -1 4 8 3 26 0 40
-6 24 -9 25 -84 24 l-77 -1 51 -23z"/>
<path d="M4882 2991 c-8 -5 -12 -22 -10 -42 3 -30 7 -34 36 -37 23 -2 32 1 32
11 0 8 14 29 32 46 l32 31 -55 0 c-30 0 -60 -4 -67 -9z"/>
<path d="M3231 2966 c-10 -12 -8 -19 8 -35 24 -24 42 -26 59 -9 16 16 15 23
-4 42 -19 20 -48 21 -63 2z"/>
<path d="M4732 2968 c-29 -29 -2 -72 40 -66 42 6 32 78 -11 78 -9 0 -22 -5
-29 -12z"/>
<path d="M6420 2963 c-29 -11 -41 -25 -30 -38 9 -11 -93 -118 -217 -228 -24
-20 -43 -39 -43 -41 0 -2 21 -7 48 -11 26 -4 49 -11 52 -16 3 -4 24 -11 47
-15 36 -5 42 -4 48 15 3 11 39 53 79 93 88 89 160 183 153 201 -3 7 -24 18
-48 24 -24 6 -51 13 -59 16 -8 3 -22 3 -30 0z"/>
<path d="M1705 2900 c4 -6 11 -8 16 -5 14 9 11 15 -7 15 -8 0 -12 -5 -9 -10z"/>
<path d="M5137 2893 c-3 -5 -7 -21 -11 -38 -6 -30 -5 -30 67 -57 89 -34 91
-34 104 -5 25 51 24 56 -15 66 -20 6 -59 17 -87 26 -59 18 -53 17 -58 8z"/>
<path d="M2865 2852 c-6 -5 -46 -25 -90 -44 -44 -20 -115 -53 -157 -72 -43
-20 -128 -57 -190 -82 -62 -25 -151 -64 -198 -86 -111 -52 -161 -74 -184 -82
-18 -6 -17 -8 10 -25 16 -10 40 -34 54 -55 33 -49 66 -47 62 4 -1 19 -13 46
-25 59 -12 14 5 4 38 -21 60 -46 105 -67 105 -50 0 5 -20 30 -44 55 -32 34
-40 47 -29 51 23 9 28 7 55 -17 57 -53 79 -66 105 -61 32 6 173 81 263 139 36
24 79 46 96 49 56 12 119 61 168 130 46 65 47 68 32 91 -16 25 -52 33 -71 17z"/>
<path d="M3215 2795 c-28 -27 -34 -75 -9 -75 43 0 95 65 71 89 -17 17 -36 13
-62 -14z"/>
<path d="M4773 2808 c-50 -9 -73 -28 -35 -28 9 -1 28 -7 41 -14 21 -12 29 -11
59 7 32 19 33 21 16 34 -10 7 -20 12 -23 12 -3 -1 -30 -6 -58 -11z"/>
<path d="M2155 2789 c-33 -10 -92 -30 -132 -44 -67 -25 -72 -29 -75 -58 l-3
-32 -26 28 -26 27 -46 -17 -45 -17 41 -45 c116 -126 110 -121 153 -110 54 15
94 37 94 52 -1 6 -7 29 -14 50 -14 38 -8 48 14 22 7 -9 26 -25 41 -36 l28 -20
98 42 c54 22 102 45 107 50 15 14 -94 123 -124 125 -14 0 -52 -7 -85 -17z
m-125 -119 c0 -5 -5 -10 -11 -10 -5 0 -7 5 -4 10 3 6 8 10 11 10 2 0 4 -4 4
-10z"/>
<path d="M5483 2744 c-24 -14 -43 -30 -43 -34 0 -4 24 -17 54 -29 29 -12 80
-40 112 -61 33 -22 62 -40 67 -40 4 0 32 -17 63 -37 l56 -37 42 22 c48 26 156
109 156 120 0 5 -35 18 -77 30 -263 72 -341 92 -363 92 -14 -1 -44 -12 -67
-26z"/>
<path d="M6155 2560 c-29 -42 -96 -85 -110 -72 -5 4 -5 2 -1 -5 6 -10 -48 -58
-66 -58 -19 0 -17 -15 4 -26 12 -6 27 -18 31 -25 4 -8 12 -14 17 -14 14 0 236
218 229 225 -4 3 -22 8 -41 11 -31 5 -36 2 -63 -36z"/>
<path d="M2073 2265 c0 -8 4 -12 9 -9 5 3 6 10 3 15 -9 13 -12 11 -12 -6z"/>
<path d="M2070 2230 c0 -5 5 -10 11 -10 5 0 7 -4 4 -10 -3 -5 -1 -10 4 -10 6
0 11 9 11 20 0 11 -7 20 -15 20 -8 0 -15 -4 -15 -10z"/>
<path d="M2695 1460 c10 -11 20 -20 23 -20 3 0 -3 9 -13 20 -10 11 -20 20 -23
20 -3 0 3 -9 13 -20z"/>
<path d="M3033 1453 c2 -12 6 -26 10 -29 11 -11 8 19 -3 36 -8 12 -9 10 -7 -7z"/>
<path d="M3049 1397 c6 -8 8 -17 4 -20 -3 -4 -1 -7 5 -7 14 0 14 2 6 24 -3 9
-11 16 -16 16 -7 0 -6 -5 1 -13z"/>
<path d="M2806 1381 c-3 -4 3 -16 14 -26 11 -10 20 -13 20 -8 0 6 -7 14 -16
17 -8 3 -12 10 -9 16 3 5 4 10 1 10 -3 0 -7 -4 -10 -9z"/>
<path d="M2875 1370 c-4 -6 -11 -8 -16 -5 -16 10 -10 -2 9 -16 9 -7 14 -9 10
-5 -4 5 -3 15 3 23 6 7 9 13 6 13 -3 0 -9 -5 -12 -10z"/>
<path d="M4866 1363 c-6 -14 -5 -15 5 -6 7 7 10 15 7 18 -3 3 -9 -2 -12 -12z"/>
<path d="M2895 1360 c-3 -6 1 -7 9 -4 18 7 21 14 7 14 -6 0 -13 -4 -16 -10z"/>
<path d="M3064 1348 c-4 -6 -3 -8 3 -5 15 9 36 -42 23 -58 -5 -6 -8 -14 -5
-16 2 -3 -11 -5 -30 -5 -18 0 -31 4 -29 8 3 4 0 8 -6 8 -6 0 -9 4 -6 9 4 5 -2
8 -11 6 -28 -4 -34 4 -22 28 9 20 9 20 -4 5 -16 -20 -32 -25 -21 -6 4 7 3 8
-4 4 -7 -4 -12 -19 -12 -34 0 -21 -2 -24 -10 -12 -5 8 -10 10 -10 4 0 -19 58
-67 71 -59 7 5 10 4 5 -3 -7 -11 311 -299 326 -294 4 1 8 -3 8 -9 0 -5 5 -7
12 -3 6 4 8 3 5 -3 -6 -9 191 -187 323 -292 50 -40 49 -39 -10 15 -107 97
-299 297 -294 306 3 4 1 8 -4 8 -11 0 -74 84 -172 228 -35 50 -67 92 -73 92
-6 0 -8 3 -4 6 6 6 -29 84 -38 84 -2 0 -7 -5 -11 -12z m-94 -68 c9 -16 8 -18
-5 -14 -8 4 -15 12 -15 20 0 20 7 17 20 -6z m36 -8 c-3 -3 0 -12 6 -21 10 -13
10 -14 -2 -4 -16 15 -23 46 -8 37 5 -3 7 -9 4 -12z m17 -57 c-3 -9 -8 -14 -10
-11 -3 3 -2 9 2 15 9 16 15 13 8 -4z m137 -45 c-14 -9 -6 -15 15 -10 6 1 6 -2
2 -6 -12 -12 -36 -13 -43 -2 -7 10 13 28 31 28 6 0 3 -5 -5 -10z"/>
<path d="M2881 1304 c28 -30 31 -30 20 -2 -4 12 -16 23 -25 24 -15 2 -15 -1 5
-22z"/>
<path d="M3075 1290 c-4 -6 -10 -8 -15 -5 -5 3 -11 1 -14 -4 -8 -13 22 -7 36
7 7 7 9 12 6 12 -4 0 -10 -5 -13 -10z"/>
<path d="M4786 1241 c-17 -19 -17 -20 6 -32 13 -6 20 -8 16 -4 -4 4 -3 18 2
31 11 29 0 31 -24 5z"/>
<path d="M4833 1245 c0 -8 4 -12 9 -9 5 3 6 10 3 15 -9 13 -12 11 -12 -6z"/>
<path d="M5065 1222 c-5 -4 -19 -18 -30 -32 -16 -21 -14 -20 13 4 29 27 37 36
30 36 -2 0 -7 -4 -13 -8z"/>
<path d="M4729 1173 c-13 -16 -12 -17 4 -4 16 13 21 21 13 21 -2 0 -10 -8 -17
-17z"/>
<path d="M4851 1136 c-9 -10 -8 -16 4 -26 16 -13 10 -34 -7 -24 -6 4 -6 -2 1
-15 7 -11 9 -22 6 -22 -13 -3 -26 -7 -32 -9 -5 -1 -11 -2 -15 -1 -12 2 -9 -5
8 -19 8 -8 14 -9 13 -4 -4 20 2 28 10 15 8 -12 12 -12 25 -2 8 7 15 16 14 19
-2 19 3 32 13 32 5 0 7 -6 3 -12 -5 -9 -3 -9 9 1 20 16 13 33 -11 24 -15 -6
-15 -5 1 14 12 14 15 23 7 28 -6 3 -9 1 -8 -6 2 -7 -4 -14 -12 -14 -25 -2 -32
6 -19 21 6 8 9 14 6 14 -2 0 -10 -6 -16 -14z m22 -61 c-3 -9 -8 -14 -10 -11
-3 3 -2 9 2 15 9 16 15 13 8 -4z"/>
<path d="M4927 1103 c6 -16 8 -16 23 1 9 12 8 15 -8 13 -12 0 -18 -6 -15 -14z"/>
<path d="M4552 983 c-121 -131 -269 -316 -304 -377 -8 -15 -7 -17 4 -10 23 15
41 14 28 -1 -6 -7 -9 -17 -8 -21 2 -5 -1 -9 -7 -9 -5 0 -8 5 -7 10 2 6 0 6 -4
2 -11 -11 -14 -38 -3 -31 14 8 10 -6 -6 -22 -8 -9 -15 -12 -15 -7 0 4 -7 -1
-16 -12 -12 -16 -16 -17 -23 -6 -7 11 -14 9 -35 -12 -78 -78 -132 -95 -199
-61 -34 18 -180 117 -209 142 -10 8 -18 12 -18 9 0 -8 138 -113 227 -171 l72
-48 58 35 c32 20 77 54 101 75 23 22 42 38 42 35 0 -8 140 109 141 118 1 5 2
13 3 18 2 18 16 24 16 7 0 -12 40 17 123 87 101 87 122 109 121 131 -1 14 3
26 8 26 5 0 6 4 3 10 -3 6 1 7 9 4 9 -3 17 -1 17 5 1 6 2 17 3 24 0 6 9 12 18
12 10 0 22 5 29 12 8 8 20 9 38 2 22 -8 23 -7 10 3 -9 7 -15 21 -13 30 1 10
-2 21 -7 24 -5 3 -8 0 -7 -8 2 -7 -3 -12 -10 -10 -8 1 -11 -2 -7 -8 3 -5 -1
-10 -10 -10 -9 0 -14 -4 -11 -9 7 -11 -21 -8 -31 4 -4 4 -3 5 3 2 7 -4 13 4
16 23 3 23 2 27 -8 19 -9 -8 -11 -5 -7 9 3 12 -1 19 -11 19 -11 0 -15 -7 -11
-25 2 -13 1 -21 -3 -17 -4 3 -7 10 -7 13 0 4 -4 13 -9 20 -4 7 -3 19 4 27 7 8
10 15 7 15 -3 0 -46 -44 -95 -97z m32 -34 c-3 -5 -10 -7 -15 -3 -5 3 -7 10 -3
15 3 5 10 7 15 3 5 -3 7 -10 3 -15z m-28 -21 c4 -6 3 -8 -4 -4 -5 3 -13 0 -15
-6 -3 -8 -6 -6 -6 5 -1 19 14 23 25 5z m-29 -48 c-1 -11 -5 -20 -10 -20 -5 0
-7 7 -3 15 3 8 1 15 -5 15 -6 0 -7 5 -4 10 10 15 24 2 22 -20z m-31 -22 c10
-12 13 -18 5 -13 -9 5 -12 3 -9 -6 3 -8 12 -13 19 -11 8 2 5 -6 -8 -20 -12
-13 -22 -26 -22 -30 -1 -5 -1 -14 -1 -20 0 -9 -3 -8 -10 2 -6 10 -3 21 10 35
17 18 17 22 3 40 -10 13 -14 14 -10 4 7 -20 -7 -42 -28 -45 -15 -2 -15 0 1 17
10 11 14 19 9 17 -22 -7 -9 25 21 51 0 1 9 -9 20 -21z m54 -31 c0 -2 -10 -12
-22 -23 l-23 -19 19 23 c18 21 26 27 26 19z m-96 -75 c-6 -4 -10 -15 -8 -24 1
-10 -1 -20 -5 -23 -4 -2 -7 8 -5 23 3 34 2 32 17 32 8 0 9 -3 1 -8z m-69 -61
c3 -5 2 -12 -3 -15 -5 -3 -9 1 -9 9 0 17 3 19 12 6z m-30 -33 c-10 -45 -75
-112 -75 -77 0 5 5 7 10 4 9 -6 14 8 11 28 -1 5 4 5 10 1 9 -5 10 -2 5 11 -5
15 -4 16 9 5 13 -10 15 -9 15 9 0 12 -4 19 -10 16 -15 -9 -12 2 6 19 23 23 26
20 19 -16z m52 0 c-3 -7 -5 -2 -5 12 0 14 2 19 5 13 2 -7 2 -19 0 -25z"/>
<path d="M4756 1063 c-6 -14 -5 -15 5 -6 7 7 10 15 7 18 -3 3 -9 -2 -12 -12z"/>
<path d="M4765 1040 c-3 -5 -2 -17 3 -26 8 -15 10 -15 15 0 5 12 3 15 -5 10
-8 -5 -9 -2 -5 9 7 19 2 23 -8 7z"/>
<path d="M4703 929 c-18 -16 -33 -35 -33 -40 0 -6 -4 -8 -9 -5 -10 6 -25 -24
-16 -32 9 -9 55 40 48 51 -3 6 -1 7 5 3 6 -3 23 5 39 20 15 14 23 23 16 20 -6
-3 -13 -2 -15 4 -1 5 -18 -4 -35 -21z"/>
<path d="M4215 570 c-3 -5 -1 -10 4 -10 6 0 11 5 11 10 0 6 -2 10 -4 10 -3 0
-8 -4 -11 -10z"/>
<path d="M4195 541 c-3 -5 -2 -12 3 -15 5 -3 9 1 9 9 0 17 -3 19 -12 6z"/>
</g>
</svg>
